Coordinates
version=1
nRows=7
nColumns=63
inDegrees=yes

Units are S.I. units (second, meters, Newtons, ...)
If the header above contains a line with 'inDegrees', this indicates whether rotational values are in degrees (yes) or radians (no).

endheader
time	pelvis_tilt	pelvis_list	pelvis_rotation	pelvis_tx	pelvis_ty	pelvis_tz	hip_flexion_r	hip_adduction_r	hip_rotation_r	knee_angle_r	knee_angle_r_beta	ankle_angle_r	subtalar_angle_r	mtp_angle_r	hip_flexion_l	hip_adduction_l	hip_rotation_l	knee_angle_l	knee_angle_l_beta	ankle_angle_l	subtalar_angle_l	mtp_angle_l	L5_S1_Flex_Ext	L5_S1_Lat_Bending	L5_S1_axial_rotation	L4_L5_Flex_Ext	L4_L5_Lat_Bending	L4_L5_axial_rotation	L3_L4_Flex_Ext	L3_L4_Lat_Bending	L3_L4_axial_rotation	L2_L3_Flex_Ext	L2_L3_Lat_Bending	L2_L3_axial_rotation	L1_L2_Flex_Ext	L1_L2_Lat_Bending	L1_L2_axial_rotation	L1_T12_Flex_Ext	L1_T12_Lat_Bending	L1_T12_axial_rotation	Abs_r3	Abs_r2	Abs_r1	Abs_t1	Abs_t2	neck_flexion	neck_bending	neck_rotation	arm_flex_r	arm_add_r	arm_rot_r	elbow_flex_r	pro_sup_r	wrist_flex_r	wrist_dev_r	arm_flex_l	arm_add_l	arm_rot_l	elbow_flex_l	pro_sup_l	wrist_flex_l	wrist_dev_l
      0.03333333	      4.54463331	     -3.93542520	    172.73026824	      2.57717253	      0.88305966	      0.68935819	     16.68911616	     -7.74724606	     -9.70156090	     30.30687202	      0.52895470	     25.48073862	      1.38370571	      0.00000000	      6.75860923	      2.08482805	     -6.99505865	     14.27057059	      0.24906844	     17.38320395	    -16.49226385	      0.00000000	      0.00210549	     -0.40315030	      0.61865448	      0.00391011	     -0.53618989	      0.65732039	      0.00345911	     -0.98021963	      0.65732039	      0.00240637	     -0.98021963	      0.54132267	      0.00195516	     -0.82210408	      0.50265677	      0.00120308	     -0.62447981	      0.46399086	      0.01503931	     -4.56051677	      3.44077064	      0.00000000	      0.00000000	     -0.00000000	      0.00000000	      0.00000000	     -9.33661147	      2.22534396	    -26.05410914	     34.55283415	     43.89008771	      0.00000000	      5.45109157	     -9.10615137	    -10.45221018	     22.35798305	     24.40697875	     50.69371037	      0.00000000	      5.45109157
      0.06666667	      5.39024820	     -2.76273249	    173.69998988	      2.57738975	      0.88409085	      0.69053600	     16.97099084	     -6.69388764	    -10.77157450	     29.36899517	      0.51258566	     25.43570537	      1.19900285	      0.00000000	      9.05007614	      0.95726899	     -4.38799143	     17.13264991	      0.29902115	     17.88002317	    -17.35293216	      0.00000000	      0.00079562	     -0.33168780	      0.10527608	      0.00147755	     -0.44114478	      0.11185583	      0.00130713	     -0.80646572	      0.11185583	      0.00090932	     -0.80646572	      0.09211657	      0.00073882	     -0.67637776	      0.08553681	      0.00045462	     -0.51378440	      0.07895706	      0.00568306	     -3.75211875	      0.58551396	      0.00000000	      0.00000000	     -0.00000000	      0.00000000	      0.00000000	     -6.87859586	     -2.38031286	    -12.13628738	     29.52870699	     46.73935108	      0.00000000	      5.32837638	    -11.21525804	     -8.88554270	     14.36544410	     25.46622171	     49.56670785	      0.00000000	      5.32837638
      0.10000000	      6.09269161	     -1.75034819	    174.32834064	      2.57767215	      0.88471010	      0.69148476	     17.28447207	     -5.79048120	    -11.66522035	     28.67560729	      0.50048376	     25.44447123	      1.28966389	      0.00000000	     10.98685445	      0.04457266	     -2.67595939	     19.46253019	      0.33968523	     18.34320129	    -17.75920602	      0.00000000	     -0.00016372	     -0.25956389	     -0.25452414	     -0.00030404	     -0.34521998	     -0.27043190	     -0.00026897	     -0.63110365	     -0.27043190	     -0.00018711	     -0.63110365	     -0.22270863	     -0.00015203	     -0.52930269	     -0.20680087	     -0.00009355	     -0.40206447	     -0.19089311	     -0.00116941	     -2.93623869	     -1.41558693	      0.00000000	      0.00000000	     -0.00000000	      0.00000000	      0.00000000	     -4.42816089	     -6.50259119	      3.74066734	     26.12536365	     50.52540586	      0.00000000	      5.27171636	    -12.60944846	     -7.53835875	      8.85547550	     26.20616882	     49.05621520	      0.00000000	      5.27171636
      0.13333333	      6.57222667	     -1.07937940	    174.61454572	      2.57798058	      0.88499546	      0.69199842	     17.54647356	     -5.20462734	    -12.33821484	     28.27452846	      0.49348362	     25.53767271	      1.81607427	      0.00000000	     12.38380792	     -0.56966801	     -2.02175698	     21.10918734	      0.36842482	     18.78269734	    -17.86165713	      0.00000000	     -0.00080163	     -0.20704185	     -0.45420645	     -0.00148870	     -0.27536567	     -0.48259435	     -0.00131699	     -0.50340157	     -0.48259435	     -0.00091618	     -0.50340157	     -0.39743064	     -0.00074439	     -0.42219975	     -0.36904274	     -0.00045805	     -0.32070783	     -0.34065484	     -0.00572595	     -2.34209887	     -2.52616002	      0.00000000	      0.00000000	     -0.00000000	      0.00000000	      0.00000000	     -2.44860166	     -9.28176845	     16.35486398	     24.54040403	     53.79633186	      0.00000000	      5.21827355	    -13.50779436	     -6.25052695	      3.78688692	     26.78468149	     48.98241061	      0.00000000	      5.21827355
      0.16666667	      6.82579221	     -0.71827892	    174.88101488	      2.57815348	      0.88516565	      0.69223157	     17.60612130	     -4.91359439	    -12.88567989	     27.99420856	      0.48859111	     25.66672711	      2.41818092	      0.00000000	     13.17482674	     -0.88202490	     -1.73926145	     21.97248014	      0.38349212	     19.06641540	    -17.86575272	      0.00000000	     -0.00211522	     -0.17691585	     -0.56755714	     -0.00392817	     -0.23529808	     -0.60302946	     -0.00347509	     -0.43015319	     -0.60302946	     -0.00241748	     -0.43015319	     -0.49661249	     -0.00196419	     -0.36076680	     -0.46114017	     -0.00120863	     -0.27404265	     -0.42566785	     -0.01510878	     -2.00130745	     -3.15658252	      0.00000000	      0.00000000	     -0.00000000	      0.00000000	      0.00000000	     -1.36876712	    -10.68649766	     23.23968288	     24.07840607	     55.56179847	      0.00000000	      5.18385854	    -13.91311265	     -5.36134129	      0.41645818	     27.03923618	     49.12143179	      0.00000000	      5.18385854
      0.20000000	      6.91354766	     -0.73997551	    174.61621795	      2.57837418	      0.88522884	      0.69165073	     17.79860901	     -4.80113080	    -12.50329362	     28.10030572	      0.49044286	     25.72632086	      2.47186254	      0.00000000	     13.33501046	     -0.92380446	     -2.17010462	     21.97392624	      0.38351736	     19.22811831	    -17.84156986	      0.00000000	     -0.00230650	     -0.18195018	     -0.53268463	     -0.00428340	     -0.24199374	     -0.56597742	     -0.00378935	     -0.44239368	     -0.56597742	     -0.00263610	     -0.44239368	     -0.46609905	     -0.00214182	     -0.37103281	     -0.43280626	     -0.00131793	     -0.28184083	     -0.39951347	     -0.01647510	     -2.05825686	     -2.96263209	      0.00000000	      0.00000000	     -0.00000000	      0.00000000	      0.00000000	     -1.24401594	    -10.68129706	     23.47160532	     23.91745078	     55.40806123	      0.00000000	      5.17242043	    -13.96025520	     -5.14557898	     -0.20976910	     27.03254409	     49.05750948	      0.00000000	      5.17242043
      0.23333333	      6.89757619	     -0.82184729	    174.69488522	      2.57837404	      0.88520115	      0.69148896	     17.70423164	     -4.88192693	    -12.72889606	     28.05057888	      0.48957496	     25.90504780	      2.79955406	      0.00000000	     13.25842539	     -0.78496684	     -2.00074365	     21.67988501	      0.37838537	     19.41155455	    -17.81252764	      0.00000000	     -0.00231256	     -0.19607838	     -0.56165807	     -0.00429465	     -0.26078425	     -0.59676170	     -0.00379930	     -0.47674498	     -0.59676170	     -0.00264302	     -0.47674498	     -0.49145081	     -0.00214744	     -0.39984304	     -0.45634718	     -0.00132139	     -0.30372542	     -0.42124355	     -0.01651836	     -2.21807788	     -3.12377368	      0.00000000	      0.00000000	     -0.00000000	      0.00000000	      0.00000000	     -1.68447957	     -9.90400235	     20.16812847	     24.01749179	     54.22645470	      0.00000000	      5.13304983	    -14.25538331	     -4.10736631	     -4.91378444	     27.45893683	     48.88718472	      0.00000000	      5.13304983
